<svg xmlns="http://www.w3.org/2000/svg" viewBox="0 0 1200 900" width="1200" height="900">
<style>
  text { font-family: 'Courier New', 'Lucida Console', 'PingFang SC', monospace; }
  .title { font-size: 18px; font-weight: 700; fill: #ffffff; letter-spacing: 0.06em; }
  .subtitle { font-size: 10px; fill: #48cae4; letter-spacing: 0.04em; }
  .layer-tag { font-size: 9px; font-weight: 700; fill: #0a1628; letter-spacing: 0.08em; }
  .layer-name { font-size: 11px; font-weight: 700; fill: #caf0f8; letter-spacing: 0.04em; }
  .comp-title { font-size: 11px; font-weight: 700; fill: #caf0f8; }
  .comp-sub { font-size: 8.5px; fill: #48cae4; }
  .comp-num { font-size: 9px; font-weight: 700; fill: #0a1628; }
  .ext-title { font-size: 10px; font-weight: 600; fill: #90e0ef; }
  .ext-sub { font-size: 8px; fill: #48cae4; opacity: 0.7; }
  .arrow-label { font-size: 8.5px; fill: #90e0ef; }
  .legend-text { font-size: 9px; fill: #90e0ef; }
  .tb-title { font-size: 9px; fill: #90e0ef; letter-spacing: 0.08em; }
  .tb-main { font-size: 12px; font-weight: 700; fill: #00b4d8; }
</style>
<defs>
  <pattern id="grid" width="30" height="30" patternUnits="userSpaceOnUse">
    <path d="M 30 0 L 0 0 0 30" fill="none" stroke="#112240" stroke-width="0.5"/>
  </pattern>
  <marker id="ac" markerWidth="8" markerHeight="6" refX="7" refY="3" orient="auto">
    <polygon points="0 0, 8 3, 0 6" fill="#00b4d8"/>
  </marker>
  <marker id="ag" markerWidth="8" markerHeight="6" refX="7" refY="3" orient="auto">
    <polygon points="0 0, 8 3, 0 6" fill="#06d6a0"/>
  </marker>
  <marker id="ao" markerWidth="8" markerHeight="6" refX="7" refY="3" orient="auto">
    <polygon points="0 0, 8 3, 0 6" fill="#f77f00"/>
  </marker>
  <marker id="ap" markerWidth="8" markerHeight="6" refX="7" refY="3" orient="auto">
    <polygon points="0 0, 8 3, 0 6" fill="#90e0ef"/>
  </marker>
  <filter id="glow">
    <feGaussianBlur in="SourceGraphic" stdDeviation="3" result="b"/>
    <feFlood flood-color="#00b4d8" flood-opacity="0.12" result="c"/>
    <feComposite in="c" in2="b" operator="in" result="g"/>
    <feMerge><feMergeNode in="g"/><feMergeNode in="SourceGraphic"/></feMerge>
  </filter>
</defs>
<rect width="1200" height="900" fill="#0a1628"/>
<rect width="1200" height="900" fill="url(#grid)" opacity="0.6"/>
<path d="M 16,26 L 16,8 L 34,8" stroke="#00b4d8" stroke-width="1" fill="none" opacity="0.4"/>
<path d="M 1184,26 L 1184,8 L 1166,8" stroke="#00b4d8" stroke-width="1" fill="none" opacity="0.4"/>
<path d="M 16,874 L 16,892 L 34,892" stroke="#00b4d8" stroke-width="1" fill="none" opacity="0.4"/>
<path d="M 1184,874 L 1184,892 L 1166,892" stroke="#00b4d8" stroke-width="1" fill="none" opacity="0.4"/>
<text x="600" y="28" text-anchor="middle" class="title">Skill 知识单元自动生成系统架构图</text>
<text x="600" y="44" text-anchor="middle" class="subtitle">一种多格式文档的 Skill 知识单元自动生成方法与系统 — 系统架构框图</text>
<rect x="30" y="60" width="100" height="40" rx="2" fill="none" stroke="#48cae4" stroke-width="0.8" stroke-dasharray="5,3"/>
<text x="80" y="78" text-anchor="middle" class="ext-title">USER</text>
<text x="80" y="90" text-anchor="middle" class="ext-sub">上传文档</text>
<rect x="170" y="62" width="55" height="36" rx="3" fill="#06d6a0" opacity="0.15" stroke="#06d6a0" stroke-width="0.8"/>
<text x="197" y="85" text-anchor="middle" font-size="10" font-weight="700" fill="#06d6a0">MD</text>
<rect x="240" y="62" width="55" height="36" rx="3" fill="#00b4d8" opacity="0.15" stroke="#00b4d8" stroke-width="0.8"/>
<text x="267" y="85" text-anchor="middle" font-size="10" font-weight="700" fill="#00b4d8">DOCX</text>
<rect x="310" y="62" width="55" height="36" rx="3" fill="#f77f00" opacity="0.15" stroke="#f77f00" stroke-width="0.8"/>
<text x="337" y="85" text-anchor="middle" font-size="10" font-weight="700" fill="#f77f00">PDF</text>
<rect x="380" y="62" width="55" height="36" rx="3" fill="#48cae4" opacity="0.15" stroke="#48cae4" stroke-width="0.8"/>
<text x="407" y="85" text-anchor="middle" font-size="10" font-weight="700" fill="#48cae4">XLSX</text>
<rect x="60" y="110" width="1080" height="105" rx="2" fill="#0d1f3c" fill-opacity="0.35" stroke="#00b4d8" stroke-width="0.7" stroke-dasharray="8,4"/>
<rect x="66" y="116" width="27.0" height="16" rx="8" fill="#00b4d8" opacity="0.9"/>
<text x="79.0" y="127" text-anchor="middle" class="layer-tag">L1</text>
<text x="103.0" y="128" class="layer-name">接入识别层 — 文档接入 · 格式识别 · 智能路由</text>
<rect x="80" y="140" width="280" height="55" rx="2" fill="#0d1f3c" stroke="#00b4d8" stroke-width="1"/>
<rect x="80" y="140" width="280" height="2.5" fill="#00b4d8" opacity="0.5"/>
<circle cx="94" cy="158" r="9" fill="#00b4d8"/>
<text x="94" y="162" text-anchor="middle" class="comp-num">1</text>
<text x="110" y="162" class="comp-title">多格式文档接入模块</text>
<text x="90" y="176" class="comp-sub">原生支持 MD/Word/PDF/Excel</text>
<rect x="410" y="140" width="280" height="55" rx="2" fill="#0d1f3c" stroke="#00b4d8" stroke-width="1"/>
<rect x="410" y="140" width="280" height="2.5" fill="#00b4d8" opacity="0.5"/>
<circle cx="424" cy="158" r="9" fill="#00b4d8"/>
<text x="424" y="162" text-anchor="middle" class="comp-num">2</text>
<text x="440" y="162" class="comp-title">文件扩展名识别模块</text>
<text x="420" y="176" class="comp-sub">格式校验·类型确认</text>
<rect x="740" y="140" width="280" height="55" rx="2" fill="#0d1f3c" stroke="#f77f00" stroke-width="1"/>
<rect x="740" y="140" width="280" height="2.5" fill="#f77f00" opacity="0.5"/>
<circle cx="754" cy="158" r="9" fill="#f77f00"/>
<text x="754" y="162" text-anchor="middle" class="comp-num">3</text>
<text x="770" y="162" class="comp-title">格式路由分支模块</text>
<text x="750" y="176" class="comp-sub">按扩展名分发至解析管道</text>
<path d="M 360,167 L 410,167" stroke="#00b4d8" stroke-width="1.2" fill="none" marker-end="url(#ac)"/>
<rect x="371" y="151" width="28" height="13" rx="2" fill="#0a1628" opacity="0.88"/>
<text x="385" y="160" text-anchor="middle" class="arrow-label">格式信息</text>
<path d="M 690,167 L 740,167" stroke="#00b4d8" stroke-width="1.2" fill="none" marker-end="url(#ac)"/>
<rect x="701" y="151" width="28" height="13" rx="2" fill="#0a1628" opacity="0.88"/>
<text x="715" y="160" text-anchor="middle" class="arrow-label">路由分发</text>
<path d="M 130,80 L 160,80 L 160,167 L 80,167" stroke="#90e0ef" stroke-width="1.2" fill="none" marker-end="url(#ap)"/>
<rect x="60" y="230" width="1080" height="170" rx="2" fill="#0d1f3c" fill-opacity="0.35" stroke="#00b4d8" stroke-width="0.7" stroke-dasharray="8,4"/>
<rect x="66" y="236" width="27.0" height="16" rx="8" fill="#00b4d8" opacity="0.9"/>
<text x="79.0" y="247" text-anchor="middle" class="layer-tag">L2</text>
<text x="103.0" y="248" class="layer-name">分管道解析引擎层 — 四路并行 · 格式专属适配 · 精准抽取</text>
<rect x="80" y="268" width="220" height="65" rx="2" fill="#0d1f3c" stroke="#06d6a0" stroke-width="1"/>
<rect x="80" y="268" width="220" height="2.5" fill="#06d6a0" opacity="0.5"/>
<circle cx="94" cy="286" r="9" fill="#06d6a0"/>
<text x="94" y="290" text-anchor="middle" class="comp-num">4</text>
<text x="110" y="290" class="comp-title">Excel 解析模块</text>
<text x="90" y="304" class="comp-sub">必备 Sheet 合规校验</text>
<text x="90" y="316" class="comp-sub">核心信息拼接→Markdown</text>
<rect x="340" y="268" width="220" height="65" rx="2" fill="#0d1f3c" stroke="#00b4d8" stroke-width="1"/>
<rect x="340" y="268" width="220" height="2.5" fill="#00b4d8" opacity="0.5"/>
<circle cx="354" cy="286" r="9" fill="#00b4d8"/>
<text x="354" y="290" text-anchor="middle" class="comp-num">5</text>
<text x="370" y="290" class="comp-title">Markdown 解析模块</text>
<text x="350" y="304" class="comp-sub">标题层级映射规则</text>
<text x="350" y="316" class="comp-sub">段落标签识别·结构化</text>
<rect x="600" y="268" width="220" height="65" rx="2" fill="#0d1f3c" stroke="#48cae4" stroke-width="1"/>
<rect x="600" y="268" width="220" height="2.5" fill="#48cae4" opacity="0.5"/>
<circle cx="614" cy="286" r="9" fill="#48cae4"/>
<text x="614" y="290" text-anchor="middle" class="comp-num">6</text>
<text x="630" y="290" class="comp-title">Word 解析模块</text>
<text x="610" y="304" class="comp-sub">版式还原·无损提取</text>
<text x="610" y="316" class="comp-sub">转 Markdown→复用MD逻辑</text>
<rect x="860" y="268" width="220" height="65" rx="2" fill="#0d1f3c" stroke="#90e0ef" stroke-width="1"/>
<rect x="860" y="268" width="220" height="2.5" fill="#90e0ef" opacity="0.5"/>
<circle cx="874" cy="286" r="9" fill="#90e0ef"/>
<text x="874" y="290" text-anchor="middle" class="comp-num">7</text>
<text x="890" y="290" class="comp-title">PDF 解析模块</text>
<text x="870" y="304" class="comp-sub">文本提取·版式还原</text>
<text x="870" y="316" class="comp-sub">转 Markdown→复用MD逻辑</text>
<path d="M 880,195 L 880,220 L 190,220 L 190,268" stroke="#f77f00" stroke-width="1.2" fill="none" marker-end="url(#ao)"/>
<path d="M 880,195 L 880,220 L 450,220 L 450,268" stroke="#f77f00" stroke-width="1.2" fill="none" marker-end="url(#ao)"/>
<path d="M 880,195 L 880,220 L 710,220 L 710,268" stroke="#f77f00" stroke-width="1.2" fill="none" marker-end="url(#ao)"/>
<path d="M 880,195 L 880,220 L 970,220 L 970,268" stroke="#f77f00" stroke-width="1.2" fill="none" marker-end="url(#ao)"/>
<rect x="620" y="340" width="240" height="16" rx="8" fill="#00b4d8" opacity="0.08" stroke="#00b4d8" stroke-width="0.5" stroke-dasharray="3,2"/>
<text x="740" y="351" text-anchor="middle" font-size="8" fill="#48cae4" opacity="0.8">Word/PDF 复用 Markdown 解析逻辑</text>
<rect x="60" y="415" width="1080" height="155" rx="2" fill="#0d1f3c" fill-opacity="0.35" stroke="#00b4d8" stroke-width="0.7" stroke-dasharray="8,4"/>
<rect x="66" y="421" width="27.0" height="16" rx="8" fill="#06d6a0" opacity="0.9"/>
<text x="79.0" y="432" text-anchor="middle" class="layer-tag">L3</text>
<text x="103.0" y="433" class="layer-name">智能抽取增强层 — 双路径生成 · 规则化+大模型协同</text>
<rect x="80" y="450" width="310" height="55" rx="2" fill="#0d1f3c" stroke="#06d6a0" stroke-width="1" filter="url(#glow)"/>
<rect x="80" y="450" width="310" height="2.5" fill="#06d6a0" opacity="0.5"/>
<circle cx="94" cy="468" r="9" fill="#06d6a0"/>
<text x="94" y="472" text-anchor="middle" class="comp-num">8</text>
<text x="110" y="472" class="comp-title">规则化标签抽取模块</text>
<text x="90" y="486" class="comp-sub">6 类核心标签·逐行扫描·行首匹配</text>
<rect x="440" y="450" width="310" height="55" rx="2" fill="#0d1f3c" stroke="#06d6a0" stroke-width="1" filter="url(#glow)"/>
<rect x="440" y="450" width="310" height="2.5" fill="#06d6a0" opacity="0.5"/>
<circle cx="454" cy="468" r="9" fill="#06d6a0"/>
<text x="454" y="472" text-anchor="middle" class="comp-num">9</text>
<text x="470" y="472" class="comp-title">大模型增强检查模块</text>
<text x="450" y="486" class="comp-sub">Kimi LLM·补全纠错·标准化优化</text>
<rect x="830" y="452" width="200" height="50" rx="2" fill="none" stroke="#48cae4" stroke-width="0.8" stroke-dasharray="5,3"/>
<text x="930" y="475" text-anchor="middle" class="ext-title">Kimi 大模型</text>
<text x="930" y="487" text-anchor="middle" class="ext-sub">LLM 增强校验</text>
<path d="M 750,477 L 830,477" stroke="#06d6a0" stroke-width="1.2" fill="none" marker-end="url(#ag)"/>
<rect x="774" y="461" width="33" height="13" rx="2" fill="#0a1628" opacity="0.88"/>
<text x="790" y="470" text-anchor="middle" class="arrow-label">调用LLM</text>
<path d="M 390,477 L 440,477" stroke="#06d6a0" stroke-width="1.2" fill="none" marker-end="url(#ag)"/>
<rect x="401" y="461" width="28" height="13" rx="2" fill="#0a1628" opacity="0.88"/>
<text x="415" y="470" text-anchor="middle" class="arrow-label">抽取结果</text>
<rect x="80" y="518" width="130" height="16" rx="8" fill="#06d6a0" opacity="0.12" stroke="#06d6a0" stroke-width="0.5"/>
<text x="145" y="529" text-anchor="middle" font-size="9" font-weight="700" fill="#06d6a0" letter-spacing="0.04em">PATH-A 规则化抽取</text>
<rect x="440" y="518" width="130" height="16" rx="8" fill="#f77f00" opacity="0.12" stroke="#f77f00" stroke-width="0.5"/>
<text x="505" y="529" text-anchor="middle" font-size="9" font-weight="700" fill="#f77f00" letter-spacing="0.04em">PATH-B 直达生成</text>
<line x1="190" y1="333" x2="190" y2="400" stroke="#00b4d8" stroke-width="0.6" opacity="0.4"/>
<circle cx="190" cy="400" r="2" fill="#00b4d8" opacity="0.5"/>
<line x1="450" y1="333" x2="450" y2="400" stroke="#00b4d8" stroke-width="0.6" opacity="0.4"/>
<circle cx="450" cy="400" r="2" fill="#00b4d8" opacity="0.5"/>
<line x1="710" y1="333" x2="710" y2="400" stroke="#00b4d8" stroke-width="0.6" opacity="0.4"/>
<circle cx="710" cy="400" r="2" fill="#00b4d8" opacity="0.5"/>
<line x1="970" y1="333" x2="970" y2="400" stroke="#00b4d8" stroke-width="0.6" opacity="0.4"/>
<circle cx="970" cy="400" r="2" fill="#00b4d8" opacity="0.5"/>
<line x1="190" y1="400" x2="970" y2="400" stroke="#00b4d8" stroke-width="0.6" opacity="0.35"/>
<path d="M 235,400 L 235,450" stroke="#06d6a0" stroke-width="1.2" fill="none" marker-end="url(#ag)"/>
<path d="M 790,400 L 790,415 L 790,545 L 630,545 L 630,590" stroke="#f77f00" stroke-width="1.2" fill="none" marker-end="url(#ao)"/>
<rect x="810" y="491" width="33" height="13" rx="2" fill="#0a1628" opacity="0.88"/>
<text x="810" y="500" text-anchor="start" class="arrow-label">结构化内容</text>
<rect x="60" y="585" width="1080" height="195" rx="2" fill="#0d1f3c" fill-opacity="0.35" stroke="#00b4d8" stroke-width="0.7" stroke-dasharray="8,4"/>
<rect x="66" y="591" width="27.0" height="16" rx="8" fill="#00b4d8" opacity="0.9"/>
<text x="79.0" y="602" text-anchor="middle" class="layer-tag">L4</text>
<text x="103.0" y="603" class="layer-name">Skill 生成与落地层 — 草稿整合 · 场景绑定 · 知识库联动</text>
<rect x="340" y="600" width="400" height="55" rx="2" fill="#0d1f3c" stroke="#00b4d8" stroke-width="1"/>
<rect x="340" y="600" width="400" height="2.5" fill="#00b4d8" opacity="0.5"/>
<circle cx="354" cy="618" r="9" fill="#00b4d8"/>
<text x="354" y="622" text-anchor="middle" class="comp-num">10</text>
<text x="370" y="622" class="comp-title">标准 Skill 草稿生成模块</text>
<text x="350" y="636" class="comp-sub">整合结构化信息 + 标准化检查清单</text>
<rect x="80" y="700" width="300" height="55" rx="2" fill="#0d1f3c" stroke="#48cae4" stroke-width="1"/>
<rect x="80" y="700" width="300" height="2.5" fill="#48cae4" opacity="0.5"/>
<circle cx="94" cy="718" r="9" fill="#48cae4"/>
<text x="94" y="722" text-anchor="middle" class="comp-num">11</text>
<text x="110" y="722" class="comp-title">场景绑定模块</text>
<text x="90" y="736" class="comp-sub">绑定问数业务场景·接入Skill榜单</text>
<rect x="700" y="700" width="300" height="55" rx="2" fill="#0d1f3c" stroke="#48cae4" stroke-width="1"/>
<rect x="700" y="700" width="300" height="2.5" fill="#48cae4" opacity="0.5"/>
<circle cx="714" cy="718" r="9" fill="#48cae4"/>
<text x="714" y="722" text-anchor="middle" class="comp-num">12</text>
<text x="730" y="722" class="comp-title">知识库关联模块</text>
<text x="710" y="736" class="comp-sub">创建关联知识库·企业知识联动</text>
<path d="M 595,505 L 595,545 L 540,545 L 540,600" stroke="#06d6a0" stroke-width="1.2" fill="none" marker-end="url(#ag)"/>
<rect x="546" y="539" width="38" height="13" rx="2" fill="#0a1628" opacity="0.88"/>
<text x="565" y="548" text-anchor="middle" class="arrow-label">增强检查清单</text>
<path d="M 440,655 L 440,670 L 230,670 L 230,700" stroke="#00b4d8" stroke-width="1.2" fill="none" marker-end="url(#ac)"/>
<rect x="321" y="673" width="28" height="13" rx="2" fill="#0a1628" opacity="0.88"/>
<text x="335" y="682" text-anchor="middle" class="arrow-label">场景绑定</text>
<path d="M 640,655 L 640,670 L 850,670 L 850,700" stroke="#00b4d8" stroke-width="1.2" fill="none" marker-end="url(#ac)"/>
<rect x="729" y="673" width="33" height="13" rx="2" fill="#0a1628" opacity="0.88"/>
<text x="745" y="682" text-anchor="middle" class="arrow-label">知识库创建</text>
<rect x="30" y="785" width="160" height="42" rx="2" fill="none" stroke="#48cae4" stroke-width="0.8" stroke-dasharray="5,3"/>
<text x="110" y="804" text-anchor="middle" class="ext-title">问数业务场景</text>
<text x="110" y="816" text-anchor="middle" class="ext-sub">业务系统接入</text>
<rect x="230" y="785" width="160" height="42" rx="2" fill="none" stroke="#48cae4" stroke-width="0.8" stroke-dasharray="5,3"/>
<text x="310" y="804" text-anchor="middle" class="ext-title">Skill 榜单</text>
<text x="310" y="816" text-anchor="middle" class="ext-sub">技能排行展示</text>
<rect x="700" y="785" width="160" height="42" rx="2" fill="none" stroke="#48cae4" stroke-width="0.8" stroke-dasharray="5,3"/>
<text x="780" y="804" text-anchor="middle" class="ext-title">企业知识库</text>
<text x="780" y="816" text-anchor="middle" class="ext-sub">知识资产管理</text>
<rect x="900" y="785" width="160" height="42" rx="2" fill="none" stroke="#48cae4" stroke-width="0.8" stroke-dasharray="5,3"/>
<text x="980" y="804" text-anchor="middle" class="ext-title">知识图谱</text>
<text x="980" y="816" text-anchor="middle" class="ext-sub">实体关系关联</text>
<path d="M 150,755 L 150,770 L 110,770 L 110,785" stroke="#90e0ef" stroke-width="1.2" stroke-dasharray="5,3" fill="none" marker-end="url(#ap)"/>
<path d="M 280,755 L 280,770 L 310,770 L 310,785" stroke="#90e0ef" stroke-width="1.2" stroke-dasharray="5,3" fill="none" marker-end="url(#ap)"/>
<path d="M 800,755 L 800,770 L 780,770 L 780,785" stroke="#90e0ef" stroke-width="1.2" stroke-dasharray="5,3" fill="none" marker-end="url(#ap)"/>
<path d="M 920,755 L 920,770 L 980,770 L 980,785" stroke="#90e0ef" stroke-width="1.2" stroke-dasharray="5,3" fill="none" marker-end="url(#ap)"/>
<rect x="1000" y="110" width="130" height="260" rx="2" fill="#0d1f3c" fill-opacity="0.6" stroke="#112240" stroke-width="0.8"/>
<text x="1065" y="126" text-anchor="middle" font-size="9" font-weight="700" fill="#00b4d8" letter-spacing="0.06em">DATA FLOW</text>
<line x1="1010" y1="132" x2="1120" y2="132" stroke="#112240" stroke-width="0.6"/>
<text x="1014" y="148" font-size="8.5" fill="#90e0ef">原始文档上传</text>
<text x="1014" y="163" font-size="8" fill="#06d6a0">  ↓</text>
<text x="1014" y="178" font-size="8.5" fill="#90e0ef">扩展名识别</text>
<text x="1014" y="193" font-size="8" fill="#06d6a0">  ↓</text>
<text x="1014" y="208" font-size="8.5" fill="#90e0ef">格式路由分发</text>
<text x="1014" y="223" font-size="8" fill="#06d6a0">  ↓</text>
<text x="1014" y="238" font-size="8.5" fill="#90e0ef">四路并行解析</text>
<text x="1014" y="253" font-size="8" fill="#06d6a0">  ↓</text>
<text x="1014" y="268" font-size="8.5" fill="#90e0ef">规则化标签抽取</text>
<text x="1014" y="283" font-size="8" fill="#06d6a0">  ↓</text>
<text x="1014" y="298" font-size="8.5" fill="#90e0ef">LLM 增强校验</text>
<text x="1014" y="313" font-size="8" fill="#06d6a0">  ↓</text>
<text x="1014" y="328" font-size="8.5" fill="#90e0ef">Skill 草稿生成</text>
<text x="1014" y="343" font-size="8" fill="#06d6a0">  ↓</text>
<text x="1014" y="358" font-size="8.5" fill="#90e0ef">场景绑定 + 知识库</text>
<rect x="880" y="845" width="300" height="45" fill="#0d1f3c" stroke="#00b4d8" stroke-width="1"/>
<line x1="880" y1="861" x2="1180" y2="861" stroke="#00b4d8" stroke-width="0.5"/>
<text x="1030" y="857" text-anchor="middle" class="tb-title">PATENT / 系统架构框图</text>
<text x="1030" y="879" text-anchor="middle" class="tb-main">Skill 知识单元自动生成系统</text>
<rect x="30" y="845" width="480" height="45" rx="2" fill="#0d1f3c" stroke="#00b4d8" stroke-width="0.6"/>
<text x="40" y="857" font-size="9" font-weight="700" fill="#00b4d8" letter-spacing="0.1em">LEGEND</text>
<line x1="40" y1="877" x2="62" y2="877" stroke="#00b4d8" stroke-width="1.5" marker-end="url(#ac)"/>
<text x="68" y="880" class="legend-text">主数据流</text>
<line x1="158" y1="877" x2="180" y2="877" stroke="#06d6a0" stroke-width="1.5" marker-end="url(#ag)"/>
<text x="186" y="880" class="legend-text">PATH-A 规则+LLM</text>
<line x1="276" y1="877" x2="298" y2="877" stroke="#f77f00" stroke-width="1.5" marker-end="url(#ao)"/>
<text x="304" y="880" class="legend-text">PATH-B 直达</text>
<line x1="394" y1="877" x2="416" y2="877" stroke="#90e0ef" stroke-width="1.5" marker-end="url(#ap)"/>
<text x="422" y="880" class="legend-text">外部系统连接</text>
</svg>